<?xml version="1.0" encoding="utf-8"?><!-- Uploaded to: SVG Repo, www.svgrepo.com, Generator: SVG Repo Mixer Tools -->
<svg fill="#000000" width="800px" height="800px" viewBox="0 0 24 24" id="wristwatch" data-name="Flat Color" xmlns="http://www.w3.org/2000/svg" class="icon flat-color"><path id="secondary" d="M17,17v4a1,1,0,0,1-1,1H8a1,1,0,0,1-1-1V17a1,1,0,0,1,1-1h8A1,1,0,0,1,17,17ZM16,2H8A1,1,0,0,0,7,3V7A1,1,0,0,0,8,8h8a1,1,0,0,0,1-1V3A1,1,0,0,0,16,2Z" style="fill: rgb(44, 169, 188);"></path><path id="primary" d="M18.36,7.83,16.68,6.27A1,1,0,0,0,16,6H8a1,1,0,0,0-.68.27L5.64,7.83A2,2,0,0,0,5,9.29v5.42a2,2,0,0,0,.64,1.46l1.68,1.56A1,1,0,0,0,8,18h8a1,1,0,0,0,.68-.27l1.68-1.56h0A2,2,0,0,0,19,14.71V9.29A2,2,0,0,0,18.36,7.83Z" style="fill: rgb(0, 0, 0);"></path></svg>